<svg width="24" height="24" viewBox="0 0 24 24" fill="none" xmlns="http://www.w3.org/2000/svg">
<path d="M22.8075 0H1.0425C0.4485 0 0 0.45 0 1.05V23.1C0 23.55 0.447 24 1.044 24H22.956C23.553 24 24 23.55 24 22.95V1.05C23.85 0.45 23.403 0 22.8075 0ZM7.0065 20.4H3.5775V9H7.155V20.4H7.005H7.0065ZM5.367 7.5C4.1745 7.5 3.279 6.45 3.279 5.4C3.279 4.2 4.1745 3.3 5.367 3.3C6.5595 3.3 7.452 4.2 7.452 5.4C7.305 6.45 6.4095 7.5 5.367 7.5V7.5ZM20.274 20.4H16.695V14.85C16.695 13.5 16.695 11.85 14.907 11.85C13.1175 11.85 12.8205 13.35 12.8205 14.85V20.55H9.24V9H12.669V10.5C13.116 9.6 14.3085 8.7 15.9495 8.7C19.527 8.7 20.1225 11.1 20.1225 14.1V20.4H20.2725H20.274Z" fill="#0E76A8"/>
</svg>
